<svg width="17" height="18" viewBox="0 0 17 18" fill="none" xmlns="http://www.w3.org/2000/svg">
<path fill-rule="evenodd" clip-rule="evenodd" d="M10.4235 6.71942C10.4235 8.77684 8.75845 10.4388 6.71175 10.4388C4.66504 10.4388 3 8.77684 3 6.71942C3 4.66201 4.66504 3 6.71175 3C8.75845 3 10.4235 4.66201 10.4235 6.71942ZM10.5075 13.1938C10.1959 12.8429 9.68497 12.7636 9.25071 12.9414C8.46749 13.2621 7.61024 13.4388 6.71175 13.4388C3.00495 13.4388 0 10.4305 0 6.71942C0 3.00839 3.00495 0 6.71175 0C10.4185 0 13.4235 3.00839 13.4235 6.71942C13.4235 7.87489 13.1322 8.96224 12.6191 9.91187C12.3986 10.32 12.4202 10.8296 12.7282 11.1765L15.9834 14.8428C16.5334 15.4622 16.4771 16.4103 15.8576 16.9604C15.2381 17.5104 14.29 17.4541 13.74 16.8346L10.5075 13.1938Z" fill="url(#paint0_linear)"/>
<defs>
<linearGradient id="paint0_linear" x1="2.70503e-08" y1="17.3387" x2="-8.45789" y2="2.55862" gradientUnits="userSpaceOnUse">
<stop stop-color="#505050"/>
<stop offset="1" stop-color="#333333"/>
</linearGradient>
</defs>
</svg>
