<svg xmlns="http://www.w3.org/2000/svg">
    <symbol id="feed-icon">
        <rect opacity=" 0.5" y="15.4" width="20" height="6.6" rx="1" />
        <rect width="20" height="13.2" rx="1"/>
    </symbol>

    <symbol id="events-icon">
        <path d=" M3.37906 24.6258C3.53166 24.2476 3.89861 24 4.30641 24H18.6936C19.1014 24 19.4683 24.2476 19.6209
        24.6258L22.4455 31.6258C22.7107 32.2831 22.2269 33 21.5182 33H1.48185C0.773095 33 0.289287 32.2831 0.554499
        31.6258L3.37906 24.6258Z" opacity="0.5"/>
        <path d="M11.5 8C7.36053 8 4 11.3239 4 15.4182C4 19.8363 8.91223 25.9989 10.7858 28.1886C11.1652 28.6321 11.8348 28.6321 12.2142 28.1886C14.0878 25.9989 19 19.8363 19 15.4182C19 11.3239 15.6395 8 11.5 8ZM11.5 18.6761C9.67507 18.6761 8.20623 17.2233 8.20623 15.4182C8.20623 13.6132 9.67507 12.1604 11.5 12.1604C13.3249 12.1604 14.7938 13.6132 14.7938 15.4182C14.7938 17.2233 13.3027 18.6761 11.5 18.6761Z"/>
    </symbol>

    <symbol id="search-icon">
        <path opacity="0.5" d=" M0 7.05176C0 6.49947 0.447715 6.05176 1 6.05176H15C15.5523 6.05176 16 6.49947 16 7.05176V21.0518C16 21.604 15.5523 22.0518 15 22.0518H4.23529H1C0.447716 22.0518 0 21.604 0 21.0518V19.0518V7.05176Z"/>
        <path fill-rule="evenodd" clip-rule="evenodd" d="M21.5231 8.67898C21.5231 11.7622 18.9601 14.358 15.6785 14.358C12.397 14.358 9.83398 11.7622 9.83398 8.67898C9.83398 5.59576 12.397 3 15.6785 3C18.9601 3 21.5231 5.59576 21.5231 8.67898ZM20.9428 16.6409C20.6186 16.2861 20.0904 16.2177 19.6597 16.4311C18.4631 17.024 17.1106 17.358 15.6785 17.358C10.7938 17.358 6.83398 13.4723 6.83398 8.67898C6.83398 3.88571 10.7938 0 15.6785 0C20.5632 0 24.5231 3.88571 24.5231 8.67898C24.5231 10.3984 24.0135 12.001 23.1346 13.3493C22.8655 13.7622 22.8776 14.3108 23.21 14.6747L27.6074 19.4883C28.1662 20.0999 28.1233 21.0487 27.5117 21.6075C26.9001 22.1662 25.9513 22.1233 25.3925 21.5117L20.9428 16.6409Z"/>
    </symbol>

    <symbol id="profile-icon">
        <path opacity="0.5" d="M11 5.55425C11 5.20946 11.1776 4.88899 11.47 4.70625L18.47 0.331249C18.7943 0.12858 19.2057 0.12858 19.53 0.331249L26.53 4.70625C26.8224 4.88899 27 5.20946 27 5.55425V16C27 16.5523 26.5523 17 26 17H15.2353H12C11.4477 17 11 16.5523 11 16V14.4737V5.55425Z"/>
        <path d="M0 25.2094C0 21.1318 4.98144 19.4704 7.1985 18.9485C7.24599 18.9373 7.31498 18.9332 7.31498 18.8844V18.3813C7.31498 18.1656 7.24465 17.926 7.12742 17.7344C6.75229 17.1833 6.47095 16.6083 6.28338 15.9854C6.23649 15.8417 6.16616 15.6979 6.07238 15.6021C5.58002 15.0271 5.36901 14.2365 5.22834 13.7573C4.99492 12.9702 4.78475 11.8031 5.3844 10.989C5.38971 10.9818 5.39444 10.9741 5.39837 10.966C5.40984 10.9426 5.41481 10.919 5.41158 10.8931C5.33271 10.2589 4.36226 3 11.1835 3C18.5853 3 17.6482 10.1395 17.5646 10.8703C17.5615 10.8968 17.5669 10.9189 17.5786 10.9429C17.5823 10.9504 17.5866 10.9576 17.5915 10.9644C18.192 11.802 17.9817 12.9459 17.7482 13.7333C17.631 14.1885 17.3965 15.0031 16.9042 15.5781C16.8284 15.6749 16.768 15.7716 16.7352 15.881C16.7194 15.9337 16.7079 15.9877 16.6897 16.0396C16.4819 16.6326 16.2095 17.1825 15.8726 17.7104C15.7554 17.9021 15.685 18.1177 15.685 18.3573V18.8604C15.685 18.9092 15.754 18.9136 15.8013 18.9253C18.0183 19.4698 23 21.1077 23 25.1854C23 25.6406 22.6483 26 22.2029 26H0.7737C0.351682 26 0 25.6406 0 25.2094Z"/>
    </symbol>

    <symbol id="map-loc-icon">
        <path d="M6.5 0C2.91246 0 0 2.84906 0 6.35849C0 11.0377 6.5 18 6.5 18C6.5 18 13 11.0377 13 6.35849C13 2.84906 10.0875 0 6.5 0ZM6.5 9.15094C4.9184 9.15094 3.6454 7.90566 3.6454 6.35849C3.6454 4.81132 4.9184 3.56604 6.5 3.56604C8.0816 3.56604 9.3546 4.81132 9.3546 6.35849C9.3546 7.90566 8.06231 9.15094 6.5 9.15094Z" fill="#FF781C"/>
    </symbol>

    <symbol id="map-ev-icon">
        <rect opacity="0.5" y="8" width="16" height="4" rx="1" fill="#FF781C"/>
        <rect opacity="0.3" y="13" width="16" height="2" rx="1" fill="#FF781C"/>
        <rect width="16" height="7" rx="1" fill="#FF781C"/>
    </symbol>
</svg>